<svg width="48" height="48" viewBox="0 0 48 48" fill="none" xmlns="http://www.w3.org/2000/svg">
<g id="icon/filled/home_logo">
<path id="icon" fill-rule="evenodd" clip-rule="evenodd" d="M36.762 25.6173C36.0705 24.4488 35.229 23.5038 34.254 22.7973C35.076 22.0413 35.748 21.1218 36.285 20.0493C36.9315 18.7248 37.2735 17.1633 37.2735 15.3963C37.2735 13.7478 37.0155 12.2388 36.5175 10.8948C36.0075 9.52083 35.2635 8.35383 34.293 7.41783C33.342 6.47883 32.166 5.73633 30.7365 5.17683C29.418 4.68033 27.9375 4.42383 26.3595 4.42383H10.125V35.7783C10.125 36.0828 10.2165 36.8583 10.83 37.5093L14.7225 41.5563L15.912 42.8058C15.912 42.8193 15.9255 42.8193 15.9375 42.8253L16.041 42.9228H16.0545C16.371 43.1838 16.9275 43.4988 17.748 43.4988H26.6055C28.0605 43.4988 29.4435 43.2828 30.717 42.8448L30.8985 42.7863C31.0725 42.7203 31.254 42.6618 31.4355 42.5838C32.871 41.9628 34.0935 41.1048 35.0625 40.0218C36.0315 38.9388 36.789 37.6368 37.293 36.1323C37.7775 34.6563 38.037 33.0438 38.037 31.3368C38.037 28.9848 37.6035 27.0573 36.7635 25.6188L36.762 25.6173ZM17.9025 12.6948H27.213C28.4865 12.6948 29.5215 14.1333 29.5215 15.9108C29.5215 17.6883 28.5135 19.0878 27.2205 19.1268H17.898L17.904 12.6948H17.9025ZM28.215 35.1468C27.9945 35.2548 27.7305 35.3268 27.6195 35.3268H17.922L17.9025 27.4203L17.916 27.4098H27.621C27.8025 27.4098 28.086 27.4623 28.2165 27.5208C29.238 27.9633 30.3315 29.5623 30.3315 31.3743C30.3315 33.1863 29.2515 34.6953 28.2165 35.1468H28.215Z" fill="#D4D2D2"/>
</g>
</svg>
