<svg width="18" height="18" viewBox="0 0 18 18" fill="none" xmlns="http://www.w3.org/2000/svg">
<g id="Icon/Solid/thumb-up">
<g id="Icon">
<path d="M2.69922 8.97168C2.69922 8.27269 3.28184 7.70605 4.00054 7.70605C4.71924 7.70605 5.30187 8.27269 5.30187 8.97168V14.0342C5.30187 14.7332 4.71924 15.2998 4.00054 15.2998C3.28184 15.2998 2.69922 14.7332 2.69922 14.0342V8.97168Z" fill="white"/>
<path d="M6.16942 8.83106V13.4131C6.16942 14.0523 6.54073 14.6366 7.12856 14.9225L7.1718 14.9435C7.65365 15.1778 8.18499 15.2998 8.72372 15.2998H13.4225C14.2496 15.2998 14.9617 14.732 15.1239 13.9433L16.1649 8.88075C16.3797 7.83654 15.5585 6.8623 14.4635 6.8623H11.3747V3.4873C11.3747 2.55532 10.5979 1.7998 9.63962 1.7998C9.16048 1.7998 8.77207 2.17756 8.77207 2.64355V3.20605C8.77207 3.9363 8.52853 4.64686 8.07803 5.23105L6.86346 6.80605C6.41295 7.39025 6.16942 8.10081 6.16942 8.83106Z" fill="white"/>
</g>
</g>
</svg>
