<svg width="12" height="12" viewBox="0 0 12 12" fill="none" xmlns="http://www.w3.org/2000/svg">
<g id="icon">
<path id="icon_2" fill-rule="evenodd" clip-rule="evenodd" d="M6 2.625C6.20711 2.625 6.375 2.79289 6.375 3V5.625H9C9.20711 5.625 9.375 5.79289 9.375 6C9.375 6.20711 9.20711 6.375 9 6.375H6.375V9C6.375 9.20711 6.20711 9.375 6 9.375C5.79289 9.375 5.625 9.20711 5.625 9V6.375L3 6.375C2.79289 6.375 2.625 6.20711 2.625 6C2.625 5.79289 2.79289 5.625 3 5.625L5.625 5.625V3C5.625 2.79289 5.79289 2.625 6 2.625Z" fill="#ff3746"/>
</g>
</svg>
